<svg xmlns="http://www.w3.org/2000/svg" width="204" height="213" viewBox="0 0 204 213"><defs><linearGradient id="ad7ba" x1="189.12" x2="-26.97" y1="188.38" y2="-29.84" gradientUnits="userSpaceOnUse"><stop offset=".02" stop-color="#1e73be" stop-opacity="0"/><stop offset="1" stop-color="#2e7dc3"/></linearGradient></defs><g><g opacity=".23"><path fill="url(#ad7ba)" d="M129.58 152.823v13.346a4.016 4.016 0 0 1-4.016 4.016H78.432a4.016 4.016 0 0 1-4.015-4.016v-13.347a4.016 4.016 0 0 1 4.015-4.016h4.573v-48.49h-4.573a4.016 4.016 0 0 1-4.015-4.016V82.954a4.016 4.016 0 0 1 4.015-4.016h38.543a4.016 4.016 0 0 1 4.016 4.016v65.852h4.573a4.017 4.017 0 0 1 4.016 4.017zm-8.033 4.017h-4.572a4.016 4.016 0 0 1-4.016-4.016V86.969H82.447v5.315h4.573a4.016 4.016 0 0 1 4.016 4.016v56.523a4.016 4.016 0 0 1-4.016 4.016h-4.573v5.315h39.1zm1.712-105.947c0 11.726-9.537 21.266-21.262 21.266-11.723 0-21.261-9.54-21.261-21.266 0-11.726 9.538-21.266 21.261-21.266 11.724 0 21.262 9.539 21.262 21.266zm-8.032 0c0-7.298-5.934-13.235-13.23-13.235-7.295 0-13.23 5.937-13.23 13.235 0 7.297 5.935 13.234 13.23 13.234 7.295 0 13.23-5.937 13.23-13.234zm88.819 51.426c0 56.27-45.78 102.048-102.049 102.048-14.633 0-28.735-3.027-41.949-9l-32.9 17.039a4.01 4.01 0 0 1-4.192-.306 4.017 4.017 0 0 1-1.623-3.877l5.69-36.68C9.55 152.635-.05 128.132-.05 102.318-.05 46.048 45.728.27 101.997.27c56.27 0 102.049 45.778 102.049 102.049zm-8.033-.001c0-51.841-42.175-94.017-94.016-94.017-51.84 0-94.015 42.176-94.015 94.016 0 24.4 9.307 47.526 26.208 65.12a4.017 4.017 0 0 1 1.072 3.397l-4.78 30.8 27.622-14.305a4.015 4.015 0 0 1 3.571-.06c12.65 6.015 26.217 9.066 40.322 9.066 51.841 0 94.016-42.176 94.016-94.017z"/></g></g></svg>